<svg xmlns="http://www.w3.org/2000/svg" fill="none" viewBox="0 0 800 600">
    <path
        d="M122 299.992c0 47.041 49.741 81.16 71.71 119.136 22.676 39.182 28.125 99.079 67.306 121.74 37.993 21.969 92.056-2.604 139.097-2.604 47.041 0 101.104 24.573 139.081 2.604 39.181-22.661 44.63-82.558 67.306-121.74 21.969-37.976 71.71-72.095 71.71-119.136s-49.741-81.144-71.71-119.12c-22.676-39.182-28.125-99.08-67.306-121.74-37.977-21.97-92.056 2.604-139.081 2.604-47.024 0-101.104-24.573-139.097-2.604-39.181 22.66-44.63 82.558-67.306 121.74-21.969 37.976-71.71 72.095-71.71 119.12z"
        fill="#000" opacity=".07" />
    <path
        d="M358.489 496.367c106.741 0 193.273-3.483 193.273-7.779 0-4.296-86.532-7.778-193.273-7.778-106.742 0-193.273 3.482-193.273 7.778 0 4.296 86.531 7.779 193.273 7.779z"
        fill="#1D2535" opacity=".5" />
    <path
        d="M511.872 153.342a142.222 142.222 0 00-64.462-10.575l2.266 13.291 62.196-2.716z"
        fill="#C94005" />
    <path
        d="M519.137 296.022l60.829 30.97 21.761-33.927 12.327-19.285c6.428-10.061 15.894-24.509 27.819-42.348a48.225 48.225 0 00-6.429-9.257 50.408 50.408 0 00-20.442-13.693h-.145c-4.243-1.607-8.582-3.053-12.857-4.564a199.832 199.832 0 01-21.198-9 221.886 221.886 0 01-17.051-9.257 8200.9 8200.9 0 00-10.077 24.878 6871.525 6871.525 0 01-19.446 48.086 13190.636 13190.636 0 01-15.091 37.397z"
        fill="#DADBE0" />
    <path
        d="M580.802 194.918l8.518 15.364 1.076.257a44.043 44.043 0 0024.654-2.057h-.145c-4.243-1.607-8.582-3.053-12.857-4.564a200.183 200.183 0 01-21.246-9z"
        fill="#926241" />
    <path
        d="M641.872 231.496a3121.784 3121.784 0 00-27.819 42.348c-2.057 3.214-3.552 5.512-9.45 14.737l-2.877 4.484-10.349 16.071-11.411 17.791-60.814-30.921a26357.771 26357.771 0 0115.091-37.317l19.43-48.069c.113-.257.209-.515.322-.756a1107.662 1107.662 0 016.573-16.28c1.071-2.614 2.143-5.239 3.214-7.875a200.396 200.396 0 009.772 5.545 226.805 226.805 0 007.28 3.744 202.983 202.983 0 0021.182 8.904c4.275 1.511 8.614 2.893 12.857 4.564h.144c.981.402 1.961.788 2.909 1.238a48.06 48.06 0 0117.582 12.535 48.815 48.815 0 016.364 9.257z"
        fill="#C94005" />
    <path
        d="M611.691 204.561c-9.546 4.821-17.277 5.175-22.821 4.403-.322 0-.627-.08-.932-.144l-8.55-12.857a65.322 65.322 0 0120.298 3.214 66.001 66.001 0 0112.005 5.384z"
        fill="#926241" />
    <path
        d="M151.988 440.149h412.967c13.243 0 23.979-10.735 23.979-23.978V180.02c0-13.243-10.736-23.978-23.979-23.978H151.988c-13.243 0-23.978 10.735-23.978 23.978v236.151c0 13.243 10.735 23.978 23.978 23.978z"
        fill="#232B41" />
    <path
        d="M594.576 179.265a29.67 29.67 0 00-29.604-28.848H151.941a29.633 29.633 0 00-29.603 29.603v236.247a29.634 29.634 0 0029.603 29.604h150.941v10.06c-1.607 10.945-8.951 14.031-14.094 14.818h-57.23a4.404 4.404 0 00-4.387 4.387v5.079a4.403 4.403 0 004.387 4.387h253.926a4.377 4.377 0 003.102-1.285 4.377 4.377 0 001.285-3.102v-5.079a4.381 4.381 0 00-1.285-3.102 4.383 4.383 0 00-3.102-1.285h-57.342c-5.143-.787-12.552-3.889-14.095-14.898V445.79h150.925a29.65 29.65 0 0029.62-29.603V179.94c0-.177 0-.418-.016-.675zm-11.25 236.922a18.353 18.353 0 01-18.338 18.337H151.957a18.352 18.352 0 01-18.337-18.337V179.94a18.352 18.352 0 0118.337-18.338h413.031a18.06 18.06 0 017.281 1.511 18.338 18.338 0 0111.057 16.827v236.247z"
        fill="#454C5E" />
    <path
        d="M173.765 207.325h261.094a2.12 2.12 0 002.121-2.121v-6.766a2.121 2.121 0 00-2.121-2.122H173.765c-1.171 0-2.121.95-2.121 2.122v6.766c0 1.171.95 2.121 2.121 2.121z"
        fill="#C94005" />
    <path
        d="M173.75 311.017h46.092a2.105 2.105 0 002.105-2.105v-6.799a2.105 2.105 0 00-2.105-2.105H173.75a2.106 2.106 0 00-2.106 2.105v6.799c0 1.162.943 2.105 2.106 2.105z"
        fill="#DADBE0" />
    <path
        d="M174.552 271.546h176.607a2.91 2.91 0 002.909-2.909v-29.973a2.908 2.908 0 00-2.909-2.909H174.552a2.908 2.908 0 00-2.908 2.909v29.973a2.909 2.909 0 002.908 2.909z"
        fill="#A7AAB3" />
    <path
        d="M374.206 334.336l-8.1-10.06-20.732 16.666-19.398-24.123-16.827 13.548 19.398 24.123-20.732 16.666 8.084 10.076 20.732-16.682 19.398 24.123 16.843-13.548-19.398-24.123 20.732-16.666z"
        fill="#C94005" />
    <path
        d="M601.711 259.01c1.784-11.25 12.391-39.246 16.248-49.226-.948-.45-1.928-.836-2.909-1.238h-.144c-6.622.161-10.093-.385-10.366-1.607-.209-.916 1.253-2.185 4.387-3.841a63.31 63.31 0 00-8.309-3.519 61.507 61.507 0 00-5.978-1.752l-.257 106.906c2.475-3.857 4.95-7.698 7.409-11.555l2.876-4.484c-2.169-10.205-4.098-22.5-2.957-29.684zm-119.715-15.557c-.675.097-1.446 5.079.997 8.261a6.588 6.588 0 002.298 1.864c-1.286-5.625-2.62-10.205-3.295-10.125zm24.67 59.142a37.29 37.29 0 00-5.561-2.699 29.47 29.47 0 005.561 2.699zm-42.782 27.675l-3.953 26.357 4.291-6.83a164.81 164.81 0 01-.338-19.527zm50.255-.819a25.692 25.692 0 001.864-5.85 307.772 307.772 0 01-31.596-13.211 127.203 127.203 0 01-9.177 21.953l-11.008 17.502c.193 1.977.45 3.937.803 5.818 1.961 10.575 6.654 17.839 10.238 23.399a85.17 85.17 0 0027.449 26.518 112.9 112.9 0 0080.63-29.732v-8.63l-69.203-37.767z"
        fill="#000" opacity=".1" />
    <path
        d="M514.556 310.631a19.622 19.622 0 00-7.891-7.891 29.526 29.526 0 01-5.56-2.7l-.29-.144s.113 0 .29.144a37.334 37.334 0 015.56 2.7c.724.193 1.318.209 1.607-.096 1.479-1.447-5.962-7.956-7.617-18.82-.418-2.844-1.398-9.305 2.298-15.283 4.628-7.49 13.355-8.92 15.027-9.177a86.593 86.593 0 00-21.038-4.13c-4.821-.338-8.839-.177-11.667-1.608 1.157 5.015 2.282 10.832 2.86 14.882a96.43 96.43 0 01-3.744 41.93 307.363 307.363 0 0031.596 13.211c.93-4.381.429-8.944-1.431-13.018zm80.019-156.807v60.621a36.231 36.231 0 01-9.884-1.849c-12.616-4.307-21.599-15.428-21.599-28.462 0-13.033 8.983-24.107 21.599-28.462a36.268 36.268 0 019.884-1.848z"
        fill="#000" opacity=".1" />
    <path
        d="M594.559 207.582l26.871-7.65 4.516 8.036-27.562 18.643c-1.301-3.006-2.619-6.027-3.921-9.049.08-3.358.08-6.573.096-9.98z"
        fill="#DADBE0" />
    <path
        d="M594.575 153.824v60.621a36.224 36.224 0 01-9.884-1.849l-1.382-.498v-32.142a18.338 18.338 0 00-11.057-16.827 33.328 33.328 0 0110.527-6.798 38.756 38.756 0 011.912-.723 36.264 36.264 0 019.884-1.784z"
        fill="#000" opacity=".3" />
    <path
        d="M622.234 111.524c.964 5.079 2.234 12.536 3.552 21.761.257 2.025.514 3.793.611 4.403a122.29 122.29 0 01-.531 30.536c-.321 2.009-.659 3.921-1.125 5.801-1.269 5.207-13.644 13.693-28.494 18.691a78.062 78.062 0 01-15.766 3.616c-16.698 2.009-27.675-9.369-27.755-19.285a11.977 11.977 0 011.945-6.83 38.896 38.896 0 004.532-13.34 131.76 131.76 0 002.089-18.803c.225-3.6.209-5.946.209-5.946l12.857-17.502 38.49-8.839c1.029 6.573 3.745 10.671 5.866 10.607 2.122-.064 3.247-4.018 3.52-4.87z"
        fill="#926241" />
    <path
        d="M622.234 111.524c.948 5.079 2.234 12.536 3.567 21.761.241 2.025.499 3.809.579 4.403a122.145 122.145 0 01-.498 30.536 21.028 21.028 0 01-7.666-2.138 22.35 22.35 0 01-6.847-5.432 29.6 29.6 0 01-4.628-8.036 48.196 48.196 0 01-2.138-5.673 71.286 71.286 0 01-45.401 9.884 131.76 131.76 0 002.089-18.803c.225-3.6.209-5.963.209-5.963l12.857-17.485 38.491-8.791c1.029 6.573 3.745 10.671 5.866 10.591 2.121-.081 3.327-4.002 3.6-4.822"
        fill="#000" opacity=".1" />
    <path
        d="M628.919 118.66a32.4 32.4 0 01-4.05 23.384 32.386 32.386 0 00-2.571 3.873 25.86 25.86 0 00-2.571 12.423 14.367 14.367 0 01-4.822-6.846c-1.237-4.163-1.189-12.391-1.35-13.5v-.675c0-.37-.096-.868-.225-1.832a48.51 48.51 0 00-1.398-6.107.548.548 0 00-.113-.29c-8.373 8.132-32.769 28.929-54.642 18.964a38.416 38.416 0 01-9.401-6.01 3.515 3.515 0 01-.724-.675 22.486 22.486 0 01-1.944-1.961l-.177-.177a21.843 21.843 0 01-3.729-6.059l-.675-.932a19.49 19.49 0 01-.691-3.037 17.677 17.677 0 013.006-11.507c4.162-6.606 11.41-11.604 15.235-14.207 14.818-10.302 39.214-17.502 56.635-5.979a34.268 34.268 0 0110.575 11.813 35.814 35.814 0 013.456 9.369"
        fill="#454C5E" />
    <path
        d="M611.61 129.026c-8.373 8.132-32.769 28.928-54.642 18.964a38.455 38.455 0 01-9.402-6.011 3.508 3.508 0 01-.723-.675 22.626 22.626 0 01-1.945-1.96l-.176-.177a22.06 22.06 0 01-3.729-6.059 56.7 56.7 0 0017.212 6.943c30.102 6.557 54.98-15.863 58.95-19.446l.305-.274a71.18 71.18 0 01-5.785 8.759"
        fill="#000" opacity=".5" />
    <path
        d="M480.357 156.781a25.731 25.731 0 01-.45 4.821h-29.282a25.731 25.731 0 01-.45-4.821 26.458 26.458 0 01.756-6.428h28.687c.5 2.106.748 4.263.739 6.428z"
        fill="#000" opacity=".3" />
    <path
        d="M460.67 147.074a21.746 21.746 0 013.584 5.046c3.519 6.525 3.037 13.597-1.752 17.518-6.107 4.934-16.73 2.877-23.802-4.612a25.134 25.134 0 01-2.137-2.636c-5.03-7.088-5.079-15.557.321-19.912 6.043-4.95 16.73-2.893 23.786 4.596z"
        fill="#926241" />
    <path
        d="M460.67 147.074a21.746 21.746 0 013.584 5.046 56.36 56.36 0 01-1.945 1.254c-8.695 5.223-14.287 4.146-24.461 8.389-.44.183-.87.392-1.285.627-5.03-7.088-5.079-15.557.321-19.912 6.043-4.95 16.73-2.893 23.786 4.596z"
        fill="#000" opacity=".1" />
    <path
        d="M594.591 342.918v23.32l-11.25 9.642v-29.073l11.009-5.191.241 1.302z"
        fill="#000" opacity=".15" />
    <path
        d="M520.905 253.385a24.779 24.779 0 01-23.239 16.843l-18.209 54.032-7.794 23.046-3.295 9.723a24.8 24.8 0 01.884 38.361 24.8 24.8 0 01-13.195 5.803l7.554-22.307a3.505 3.505 0 00-2.186-4.42l-13.628-4.612a3.503 3.503 0 00-4.42 2.185l-7.537 22.307a24.776 24.776 0 01-5.74-26.985 24.776 24.776 0 019.021-11.248 24.775 24.775 0 0113.754-4.323l3.215-9.354 7.939-23.48 18.16-53.967a24.8 24.8 0 01-.883-38.362 24.8 24.8 0 0113.194-5.802l-7.554 22.307a3.474 3.474 0 002.186 4.419l13.612 4.613a3.505 3.505 0 004.42-2.186l7.554-22.307a24.752 24.752 0 016.187 25.714z"
        fill="#A7AAB3" />
    <path
        d="M479.456 324.26l-7.794 23.046a49.843 49.843 0 01-8.502-1.945 52.738 52.738 0 01-7.103-2.925l7.939-23.48a48.71 48.71 0 017.152 1.752 47.63 47.63 0 018.308 3.552z"
        fill="#000" opacity=".1" />
    <path
        d="M473.028 297.083a32.13 32.13 0 00-9.096 1.607c-10.575 3.214-17.486 11.25-16.506 20.411 1.286 11.651 14.722 20.619 30.07 20.089a40.003 40.003 0 005.062-.547c12.761-2.266 21.696-11.25 20.539-21.471-1.253-11.587-14.753-20.619-30.069-20.089z"
        fill="#926241" />
    <path
        d="M473.028 297.083a32.136 32.136 0 00-9.096 1.607c.257 1.189.482 2.25.771 3.359 3.745 14.673 10.8 19.398 17.116 34.569.287.66.534 1.336.739 2.025 12.761-2.266 21.696-11.25 20.539-21.471-1.253-11.587-14.753-20.619-30.069-20.089z"
        fill="#000" opacity=".1" />
    <path
        d="M656.128 280.642c-1.607 25.441-17.678 50.544-44.228 69.926-24.525 17.888-58.001 30.921-97.327 34.843a826.446 826.446 0 01-20.009-37.703 788.043 788.043 0 01-6.188-12.665 810.54 810.54 0 01-21.294-48.422c17.486 5.737 89.726 28.285 132.379 9.98 7.73-3.311 23.159-9.836 25.344-22.5a21.82 21.82 0 00-2.346-13.243 27.985 27.985 0 01-1.823-22.13 27.986 27.986 0 0114.873-16.489c20.732 27.193 21.182 49.323 20.619 58.403z"
        fill="#C94005" />
    <path
        d="M611.9 350.568c-24.525 17.888-58.002 30.921-97.328 34.843a823.71 823.71 0 01-10.028-18.305 809.72 809.72 0 01-13.002-25.506 136.619 136.619 0 0043.778 16.49 140.148 140.148 0 0076.58-7.522z"
        fill="#000" opacity=".1" />
</svg>